<svg width="23" height="24" viewBox="0 0 23 24" fill="none" xmlns="http://www.w3.org/2000/svg">
<g clip-path="url(#clip0_1_5128)">
<path d="M8.01112 0.789433C5.71306 1.62131 3.73122 3.20024 2.3567 5.29431C0.982172 7.38838 0.287416 9.8872 0.374476 12.4237C0.461537 14.9603 1.32582 17.4008 2.84039 19.3869C4.35496 21.373 6.43997 22.8 8.78917 23.4582C10.6937 23.971 12.6891 23.9935 14.6039 23.5238C16.3384 23.1173 17.9421 22.2476 19.2578 21.0001C20.6271 19.662 21.6211 17.9597 22.1328 16.0763C22.6889 14.0282 22.7879 11.8743 22.4221 9.78006H11.7271V14.4094H17.9209C17.7971 15.1478 17.5318 15.8525 17.141 16.4814C16.7501 17.1102 16.2416 17.6504 15.646 18.0694C14.8897 18.5915 14.0371 18.9428 13.143 19.1007C12.2463 19.2747 11.3265 19.2747 10.4297 19.1007C9.52083 18.9046 8.66105 18.5132 7.9051 17.9513C6.69068 17.0543 5.77882 15.7799 5.29963 14.3101C4.81235 12.8127 4.81235 11.1893 5.29963 9.69193C5.64073 8.64234 6.2046 7.68669 6.94917 6.89631C7.80123 5.97521 8.87997 5.3168 10.067 4.99333C11.2541 4.66985 12.5036 4.6938 13.6785 5.06256C14.5963 5.35654 15.4355 5.87019 16.1294 6.56256C16.8278 5.83756 17.525 5.11068 18.221 4.38193C18.5803 3.99006 18.9721 3.61693 19.326 3.21568C18.2669 2.1872 17.0237 1.38691 15.6676 0.860683C13.1982 -0.0749616 10.4962 -0.100106 8.01112 0.789433Z" fill="white"/>
<path d="M8.01047 0.789367C10.4953 -0.100776 13.1973 -0.0762934 15.667 0.858742C17.0233 1.38855 18.2659 2.19269 19.3236 3.22499C18.9642 3.62624 18.5851 4.00124 18.2185 4.39124C17.5213 5.11749 16.8247 5.84124 16.1287 6.56249C15.4349 5.87012 14.5956 5.35648 13.6778 5.06249C12.5033 4.69244 11.2539 4.66711 10.0665 4.98926C8.87911 5.31141 7.79972 5.96861 6.94672 6.88874C6.20215 7.67912 5.63828 8.63477 5.29719 9.68437L1.57227 6.67499C2.90556 3.91604 5.21408 1.80566 8.01047 0.789367Z" fill="#E33629"/>
<path d="M0.585844 9.65605C0.786055 8.62067 1.11844 7.61798 1.57413 6.6748L5.29905 9.69168C4.81176 11.1891 4.81176 12.8124 5.29905 14.3098C4.05801 15.3098 2.81637 16.3148 1.57413 17.3248C0.433381 14.9554 0.0854735 12.2557 0.585844 9.65605Z" fill="#F8BD00"/>
<path d="M11.7291 9.77832H22.4241C22.7899 11.8726 22.6909 14.0264 22.1348 16.0746C21.6231 17.958 20.6291 19.6602 19.2598 20.9983C18.0577 20.0196 16.8502 19.0483 15.6481 18.0696C16.244 17.6501 16.7527 17.1094 17.1436 16.4798C17.5345 15.8503 17.7996 15.1448 17.9229 14.4058H11.7291C11.7273 12.8646 11.7291 11.3214 11.7291 9.77832Z" fill="#587DBD"/>
<path d="M1.57227 17.3251C2.81451 16.3251 4.05615 15.3201 5.29719 14.3101C5.77733 15.7804 6.69049 17.0549 7.90625 17.9513C8.66455 18.5106 9.52619 18.8988 10.4363 19.0913C11.333 19.2653 12.2528 19.2653 13.1495 19.0913C14.0436 18.9334 14.8962 18.5821 15.6526 18.0601C16.8547 19.0388 18.0622 20.0101 19.2643 20.9888C17.9488 22.237 16.3451 23.1073 14.6104 23.5144C12.6957 23.9841 10.7003 23.9616 8.7957 23.4488C7.28939 23.0291 5.88239 22.2893 4.66289 21.2757C3.37213 20.2063 2.31789 18.8588 1.57227 17.3251Z" fill="#319F43"/>
</g>
<defs>
<clipPath id="clip0_1_5128">
<rect width="23" height="24" fill="white"/>
</clipPath>
</defs>
</svg>
