<svg width="18" height="17" viewBox="0 0 18 17" fill="none" xmlns="http://www.w3.org/2000/svg">
<path fill-rule="evenodd" clip-rule="evenodd" d="M13.58 0H3.92C3.385 0 2.94 -2.79397e-08 2.575 0.03C1.164 0.145 0.143 1.194 0.03 2.575C-2.79397e-08 2.94 0 3.387 0 3.92V12.58C0 13.115 -2.79397e-08 13.56 0.03 13.925C0.06 14.305 0.128 14.661 0.3 14.998C0.56367 15.5156 0.984446 15.9363 1.502 16.2C1.839 16.372 2.195 16.44 2.575 16.47C2.94 16.5 3.385 16.5 3.919 16.5H13.581C14.115 16.5 14.561 16.5 14.925 16.47C15.305 16.44 15.661 16.372 15.998 16.2C16.1681 16.1059 16.295 15.9494 16.3519 15.7635C16.4089 15.5776 16.3914 15.3768 16.3032 15.2036C16.215 15.0303 16.063 14.8981 15.8792 14.8347C15.6954 14.7714 15.4942 14.7819 15.318 14.864C15.227 14.91 15.09 14.952 14.802 14.975C14.507 14.999 14.122 15 13.55 15H3.95C3.378 15 2.993 15 2.697 14.975C2.41 14.952 2.273 14.91 2.183 14.864C1.94741 14.7441 1.75591 14.5526 1.636 14.317C1.59 14.227 1.548 14.09 1.525 13.802C1.501 13.507 1.5 13.122 1.5 12.55V4.5H15.986C15.994 4.91667 15.9987 5.33333 16 5.75C16 5.94891 16.079 6.13968 16.2197 6.28033C16.3603 6.42098 16.5511 6.5 16.75 6.5C16.9489 6.5 17.1397 6.42098 17.2803 6.28033C17.421 6.13968 17.5 5.94891 17.5 5.75C17.5 5.56333 17.499 5.37733 17.497 5.192C17.49 4.522 17.47 3.385 17.406 2.574C17.293 1.15 16.334 0.144 14.925 0.03C14.56 -2.79397e-08 14.115 0 13.58 0ZM15.932 3C15.884 2.203 15.654 1.594 14.802 1.525C14.507 1.501 14.122 1.5 13.55 1.5H3.95C3.378 1.5 2.993 1.5 2.697 1.525C1.879 1.592 1.534 2.205 1.508 3H15.932Z" fill="#FF5C9E"/>
</svg>
