<svg width="8" height="9" viewBox="0 0 8 9" fill="none" xmlns="http://www.w3.org/2000/svg">
<path fill-rule="evenodd" clip-rule="evenodd" d="M3.25071 0.5C2.74833 0.500192 2.25284 0.616846 1.80314 0.8408C1.35344 1.06476 0.961784 1.38991 0.658925 1.79074C0.356066 2.19156 0.150252 2.65714 0.0576465 3.15091C-0.0349592 3.64468 -0.011835 4.1532 0.125203 4.63653C0.262241 5.11985 0.509461 5.56483 0.847449 5.93652C1.18544 6.3082 1.60499 6.59647 2.07316 6.77869C2.54133 6.9609 3.04536 7.0321 3.54569 6.9867C4.04601 6.94129 4.529 6.78052 4.95671 6.517L6.22071 7.78C6.28938 7.85369 6.37218 7.91279 6.46417 7.95378C6.55617 7.99477 6.65549 8.01681 6.75619 8.01859C6.85689 8.02037 6.95692 8.00184 7.05031 7.96412C7.1437 7.9264 7.22853 7.87026 7.29975 7.79904C7.37097 7.72782 7.42712 7.64298 7.46484 7.5496C7.50256 7.45621 7.52108 7.35618 7.5193 7.25548C7.51753 7.15478 7.49549 7.05546 7.45449 6.96346C7.4135 6.87146 7.3544 6.78866 7.28071 6.72L6.01771 5.456C6.32141 4.96356 6.48815 4.39898 6.50071 3.82055C6.51327 3.24213 6.3712 2.67084 6.08916 2.16568C5.80712 1.66053 5.39535 1.23981 4.89636 0.946993C4.39738 0.654174 3.82927 0.499864 3.25071 0.5ZM1.50071 3.75C1.50071 3.28587 1.68509 2.84075 2.01328 2.51256C2.34147 2.18437 2.78659 2 3.25071 2C3.71484 2 4.15996 2.18437 4.48815 2.51256C4.81634 2.84075 5.00071 3.28587 5.00071 3.75C5.00071 4.21413 4.81634 4.65925 4.48815 4.98744C4.15996 5.31563 3.71484 5.5 3.25071 5.5C2.78659 5.5 2.34147 5.31563 2.01328 4.98744C1.68509 4.65925 1.50071 4.21413 1.50071 3.75Z" fill="#FF5C9E"/>
</svg>
